Blatant rip from tube, just a container swap.


Plays fine on Apple TV.

General
Complete name                    : Greyson Chance - Paparazzi.mp4
Format                           : MPEG-4
Format profile                   : Base Media
Codec ID                         : isom
File size                        : 34.4 MiB
Duration                         : 3mn 38s
Overall bit rate                 : 1 323 Kbps
Writing application              : Lavf52.47.0

Video
ID                               : 1
Format                           : AVC
Format/Info                      : Advanced Video Codec
Format profile                   : Main@L3.1
Format settings, CABAC           : Yes
Format settings, ReFrames        : 3 frames
Codec ID                         : avc1
Codec ID/Info                    : Advanced Video Coding
Duration                         : 3mn 37s
Bit rate mode                    : Variable
Bit rate                         : 1 200 Kbps
Width                            : 854 pixels
Height                           : 480 pixels
Display aspect ratio             : 16:9
Frame rate mode                  : Variable
Frame rate                       : 29.919 fps
Minimum frame rate               : 29.412 fps
Maximum frame rate               : 58.824 fps
Original frame rate              : 29.917 fps
Resolution                       : 8 bits
Colorimetry                      : 4:2:0
Scan type                        : Progressive
Bits/(Pixel*Frame)               : 0.098
Stream size                      : 31.1 MiB (90%)

Audio
ID                               : 2
Format                           : AAC
Format/Info                      : Advanced Audio Codec
Format version                   : Version 4
Format profile                   : LC
Format settings, SBR             : No
Codec ID                         : 40
Duration                         : 3mn 38s
Bit rate mode                    : Variable
Bit rate                         : 117 Kbps
Channel(s)                       : 2 channels
Channel positions                : L R
Sampling rate                    : 44.1 KHz
Resolution                       : 16 bits
Stream size                      : 3.06 MiB (9%)
